<svg width="64" height="21" viewBox="0 0 64 21" fill="none" xmlns="http://www.w3.org/2000/svg">
<mask id="path-1-outside-1_145_510" maskUnits="userSpaceOnUse" x="0" y="1.5" width="65" height="19" fill="black">
<rect fill="white" y="1.5" width="65" height="19"/>
<path d="M3.16 15.56C2.58667 15.56 2.13333 15.3933 1.8 15.06C1.46667 14.7267 1.3 14.2733 1.3 13.7V3.36C1.44667 3.33333 1.68 3.3 2 3.26C2.32 3.20667 2.62667 3.18 2.92 3.18C3.22667 3.18 3.49333 3.20667 3.72 3.26C3.96 3.3 4.16 3.38 4.32 3.5C4.48 3.62 4.6 3.78667 4.68 4C4.76 4.21333 4.8 4.49333 4.8 4.84V12.74H9.38C9.47333 12.8867 9.56 13.0867 9.64 13.34C9.72 13.58 9.76 13.8333 9.76 14.1C9.76 14.6333 9.64667 15.0133 9.42 15.24C9.19333 15.4533 8.89333 15.56 8.52 15.56H3.16ZM15.4539 13.34C15.6806 13.34 15.9272 13.32 16.1939 13.28C16.4739 13.2267 16.6806 13.16 16.8139 13.08V11.48L15.3739 11.6C15.0006 11.6267 14.6939 11.7067 14.4539 11.84C14.2139 11.9733 14.0939 12.1733 14.0939 12.44C14.0939 12.7067 14.1939 12.9267 14.3939 13.1C14.6072 13.26 14.9606 13.34 15.4539 13.34ZM15.2939 5.48C16.0139 5.48 16.6672 5.55333 17.2539 5.7C17.8539 5.84667 18.3606 6.07333 18.7739 6.38C19.2006 6.67333 19.5272 7.05333 19.7539 7.52C19.9806 7.97333 20.0939 8.51333 20.0939 9.14V13.62C20.0939 13.9667 19.9939 14.2533 19.7939 14.48C19.6072 14.6933 19.3806 14.88 19.1139 15.04C18.2472 15.56 17.0272 15.82 15.4539 15.82C14.7472 15.82 14.1072 15.7533 13.5339 15.62C12.9739 15.4867 12.4872 15.2867 12.0739 15.02C11.6739 14.7533 11.3606 14.4133 11.1339 14C10.9206 13.5867 10.8139 13.1067 10.8139 12.56C10.8139 11.64 11.0872 10.9333 11.6339 10.44C12.1806 9.94667 13.0272 9.64 14.1739 9.52L16.7939 9.24V9.1C16.7939 8.71333 16.6206 8.44 16.2739 8.28C15.9406 8.10667 15.4539 8.02 14.8139 8.02C14.3072 8.02 13.8139 8.07333 13.3339 8.18C12.8539 8.28667 12.4206 8.42 12.0339 8.58C11.8606 8.46 11.7139 8.28 11.5939 8.04C11.4739 7.78667 11.4139 7.52667 11.4139 7.26C11.4139 6.91333 11.4939 6.64 11.6539 6.44C11.8272 6.22667 12.0872 6.04667 12.4339 5.9C12.8206 5.75333 13.2739 5.64667 13.7939 5.58C14.3272 5.51333 14.8272 5.48 15.2939 5.48ZM26.6328 5.48C27.4328 5.48 28.1728 5.58667 28.8528 5.8C29.5461 6 30.1395 6.31333 30.6328 6.74C31.1261 7.16667 31.5128 7.70667 31.7928 8.36C32.0728 9 32.2128 9.76667 32.2128 10.66C32.2128 11.5133 32.0928 12.26 31.8528 12.9C31.6128 13.54 31.2728 14.08 30.8328 14.52C30.3928 14.9467 29.8595 15.2667 29.2328 15.48C28.6195 15.6933 27.9328 15.8 27.1728 15.8C26.5995 15.8 26.0661 15.7133 25.5728 15.54V18.86C25.4395 18.9 25.2261 18.94 24.9328 18.98C24.6395 19.0333 24.3395 19.06 24.0328 19.06C23.7395 19.06 23.4728 19.04 23.2328 19C23.0061 18.96 22.8128 18.88 22.6528 18.76C22.4928 18.64 22.3728 18.4733 22.2928 18.26C22.2128 18.06 22.1728 17.7933 22.1728 17.46V7.86C22.1728 7.5 22.2461 7.20667 22.3928 6.98C22.5528 6.75333 22.7661 6.54667 23.0328 6.36C23.4461 6.09333 23.9595 5.88 24.5728 5.72C25.1861 5.56 25.8728 5.48 26.6328 5.48ZM26.6728 13.12C28.0461 13.12 28.7328 12.3 28.7328 10.66C28.7328 9.80667 28.5595 9.17333 28.2128 8.76C27.8795 8.34667 27.3928 8.14 26.7528 8.14C26.4995 8.14 26.2728 8.17333 26.0728 8.24C25.8728 8.29333 25.6995 8.36 25.5528 8.44V12.84C25.7128 12.92 25.8861 12.9867 26.0728 13.04C26.2595 13.0933 26.4595 13.12 26.6728 13.12ZM43.932 10.64C43.932 11.4667 43.8054 12.2067 43.552 12.86C43.2987 13.5 42.9387 14.04 42.472 14.48C42.0187 14.92 41.472 15.2533 40.832 15.48C40.192 15.7067 39.4787 15.82 38.692 15.82C37.9054 15.82 37.192 15.7 36.552 15.46C35.912 15.22 35.3587 14.88 34.892 14.44C34.4387 13.9867 34.0854 13.44 33.832 12.8C33.5787 12.16 33.452 11.44 33.452 10.64C33.452 9.85333 33.5787 9.14 33.832 8.5C34.0854 7.86 34.4387 7.32 34.892 6.88C35.3587 6.42667 35.912 6.08 36.552 5.84C37.192 5.6 37.9054 5.48 38.692 5.48C39.4787 5.48 40.192 5.60667 40.832 5.86C41.472 6.1 42.0187 6.44667 42.472 6.9C42.9387 7.34 43.2987 7.88 43.552 8.52C43.8054 9.16 43.932 9.86667 43.932 10.64ZM36.932 10.64C36.932 11.4533 37.0854 12.08 37.392 12.52C37.712 12.9467 38.152 13.16 38.712 13.16C39.272 13.16 39.6987 12.94 39.992 12.5C40.2987 12.06 40.452 11.44 40.452 10.64C40.452 9.84 40.2987 9.22667 39.992 8.8C39.6854 8.36 39.252 8.14 38.692 8.14C38.132 8.14 37.6987 8.36 37.392 8.8C37.0854 9.22667 36.932 9.84 36.932 10.64ZM49.7898 13.34C50.0165 13.34 50.2632 13.32 50.5298 13.28C50.8098 13.2267 51.0165 13.16 51.1498 13.08V11.48L49.7098 11.6C49.3365 11.6267 49.0298 11.7067 48.7898 11.84C48.5498 11.9733 48.4298 12.1733 48.4298 12.44C48.4298 12.7067 48.5298 12.9267 48.7298 13.1C48.9432 13.26 49.2965 13.34 49.7898 13.34ZM49.6298 5.48C50.3498 5.48 51.0032 5.55333 51.5898 5.7C52.1898 5.84667 52.6965 6.07333 53.1098 6.38C53.5365 6.67333 53.8632 7.05333 54.0898 7.52C54.3165 7.97333 54.4298 8.51333 54.4298 9.14V13.62C54.4298 13.9667 54.3298 14.2533 54.1298 14.48C53.9432 14.6933 53.7165 14.88 53.4498 15.04C52.5832 15.56 51.3632 15.82 49.7898 15.82C49.0832 15.82 48.4432 15.7533 47.8698 15.62C47.3098 15.4867 46.8232 15.2867 46.4098 15.02C46.0098 14.7533 45.6965 14.4133 45.4698 14C45.2565 13.5867 45.1498 13.1067 45.1498 12.56C45.1498 11.64 45.4232 10.9333 45.9698 10.44C46.5165 9.94667 47.3632 9.64 48.5098 9.52L51.1298 9.24V9.1C51.1298 8.71333 50.9565 8.44 50.6098 8.28C50.2765 8.10667 49.7898 8.02 49.1498 8.02C48.6432 8.02 48.1498 8.07333 47.6698 8.18C47.1898 8.28667 46.7565 8.42 46.3698 8.58C46.1965 8.46 46.0498 8.28 45.9298 8.04C45.8098 7.78667 45.7498 7.52667 45.7498 7.26C45.7498 6.91333 45.8298 6.64 45.9898 6.44C46.1632 6.22667 46.4232 6.04667 46.7698 5.9C47.1565 5.75333 47.6098 5.64667 48.1298 5.58C48.6632 5.51333 49.1632 5.48 49.6298 5.48ZM59.9088 15.48C59.7754 15.52 59.5621 15.56 59.2688 15.6C58.9888 15.64 58.6954 15.66 58.3888 15.66C58.0954 15.66 57.8288 15.64 57.5888 15.6C57.3621 15.56 57.1688 15.48 57.0088 15.36C56.8488 15.24 56.7221 15.08 56.6288 14.88C56.5488 14.6667 56.5088 14.3933 56.5088 14.06V8.06C56.5088 7.75333 56.5621 7.49333 56.6688 7.28C56.7888 7.05333 56.9554 6.85333 57.1688 6.68C57.3821 6.50667 57.6421 6.35333 57.9488 6.22C58.2688 6.07333 58.6088 5.94667 58.9688 5.84C59.3288 5.73333 59.7021 5.65333 60.0888 5.6C60.4754 5.53333 60.8621 5.5 61.2488 5.5C61.8888 5.5 62.3954 5.62667 62.7688 5.88C63.1421 6.12 63.3288 6.52 63.3288 7.08C63.3288 7.26667 63.3021 7.45333 63.2488 7.64C63.1954 7.81333 63.1288 7.97333 63.0488 8.12C62.7688 8.12 62.4821 8.13333 62.1888 8.16C61.8954 8.18667 61.6088 8.22667 61.3288 8.28C61.0488 8.33333 60.7821 8.39333 60.5288 8.46C60.2888 8.51333 60.0821 8.58 59.9088 8.66V15.48Z"/>
</mask>
<path d="M1.8 15.06L2.50711 14.3529L2.50711 14.3529L1.8 15.06ZM1.3 3.36L1.12112 2.37613L0.3 2.52542V3.36H1.3ZM2 3.26L2.12404 4.25228L2.14428 4.24975L2.1644 4.24639L2 3.26ZM3.72 3.26L3.49096 4.23342L3.52307 4.24097L3.5556 4.24639L3.72 3.26ZM4.32 3.5L3.72 4.3L3.72 4.3L4.32 3.5ZM4.68 4L5.61633 3.64888L5.61633 3.64888L4.68 4ZM4.8 12.74H3.8V13.74H4.8V12.74ZM9.38 12.74L10.2237 12.2031L9.92895 11.74H9.38V12.74ZM9.64 13.34L8.68642 13.6411L8.68881 13.6487L8.69132 13.6562L9.64 13.34ZM9.42 15.24L10.1054 15.9682L10.1164 15.9578L10.1271 15.9471L9.42 15.24ZM3.16 14.56C2.79077 14.56 2.61371 14.4595 2.50711 14.3529L1.09289 15.7671C1.65296 16.3272 2.38257 16.56 3.16 16.56V14.56ZM2.50711 14.3529C2.40051 14.2463 2.3 14.0692 2.3 13.7H0.3C0.3 14.4774 0.532826 15.207 1.09289 15.7671L2.50711 14.3529ZM2.3 13.7V3.36H0.3V13.7H2.3ZM1.47888 4.34387C1.59642 4.3225 1.8064 4.29198 2.12404 4.25228L1.87596 2.26772C1.5536 2.30802 1.29692 2.34417 1.12112 2.37613L1.47888 4.34387ZM2.1644 4.24639C2.4357 4.20118 2.68718 4.18 2.92 4.18V2.18C2.56616 2.18 2.2043 2.21216 1.8356 2.27361L2.1644 4.24639ZM2.92 4.18C3.17232 4.18 3.35868 4.20229 3.49096 4.23342L3.94904 2.28658C3.62798 2.21104 3.28102 2.18 2.92 2.18V4.18ZM3.5556 4.24639C3.67138 4.26569 3.71304 4.29478 3.72 4.3L4.92 2.7C4.60696 2.46522 4.24862 2.33431 3.8844 2.27361L3.5556 4.24639ZM3.72 4.3C3.7168 4.2976 3.71604 4.29594 3.71847 4.2993C3.72143 4.30342 3.73141 4.31843 3.74367 4.35112L5.61633 3.64888C5.47891 3.28242 5.25307 2.9498 4.92 2.7L3.72 4.3ZM3.74367 4.35112C3.76558 4.40954 3.8 4.55721 3.8 4.84H5.8C5.8 4.42946 5.75442 4.01712 5.61633 3.64888L3.74367 4.35112ZM3.8 4.84V12.74H5.8V4.84H3.8ZM4.8 13.74H9.38V11.74H4.8V13.74ZM8.53634 13.2769C8.56521 13.3222 8.62039 13.432 8.68642 13.6411L10.5936 13.0389C10.4996 12.7413 10.3815 12.4511 10.2237 12.2031L8.53634 13.2769ZM8.69132 13.6562C8.73553 13.7889 8.76 13.935 8.76 14.1H10.76C10.76 13.7317 10.7045 13.3711 10.5887 13.0238L8.69132 13.6562ZM8.76 14.1C8.76 14.3009 8.73806 14.4276 8.71671 14.4992C8.69641 14.5673 8.68414 14.5616 8.71289 14.5329L10.1271 15.9471C10.6331 15.4411 10.76 14.732 10.76 14.1H8.76ZM8.73464 14.5118C8.72929 14.5168 8.69247 14.56 8.52 14.56V16.56C9.0942 16.56 9.65737 16.3898 10.1054 15.9682L8.73464 14.5118ZM8.52 14.56H3.16V16.56H8.52V14.56ZM16.1939 13.28L16.3422 14.2689L16.3617 14.266L16.381 14.2623L16.1939 13.28ZM16.8139 13.08L17.3284 13.9375L17.8139 13.6462V13.08H16.8139ZM16.8139 11.48H17.8139V10.3932L16.7309 10.4835L16.8139 11.48ZM15.3739 11.6L15.4452 12.5975L15.457 12.5965L15.3739 11.6ZM14.4539 11.84L13.9683 10.9658L13.9683 10.9658L14.4539 11.84ZM14.3939 13.1L13.739 13.8557L13.7657 13.8788L13.7939 13.9L14.3939 13.1ZM17.2539 5.7L17.0114 6.67016L17.0165 6.6714L17.2539 5.7ZM18.7739 6.38L18.1781 7.1831L18.1925 7.19383L18.2074 7.20404L18.7739 6.38ZM19.7539 7.52L18.8543 7.95693L18.8595 7.96721L19.7539 7.52ZM19.7939 14.48L19.0441 13.8184L19.0413 13.8215L19.7939 14.48ZM19.1139 15.04L18.5994 14.1825L18.5994 14.1825L19.1139 15.04ZM13.5339 15.62L13.3023 16.5928L13.3074 16.594L13.5339 15.62ZM12.0739 15.02L11.5192 15.8521L11.5255 15.8562L11.5318 15.8603L12.0739 15.02ZM11.1339 14L10.2453 14.4586L10.2511 14.4698L10.2571 14.4808L11.1339 14ZM11.6339 10.44L10.9639 9.69761L10.9639 9.69761L11.6339 10.44ZM14.1739 9.52L14.278 10.5146L14.2802 10.5143L14.1739 9.52ZM16.7939 9.24L16.9002 10.2343L17.7939 10.1388V9.24H16.7939ZM16.2739 8.28L15.8126 9.16722L15.8335 9.17809L15.8548 9.18796L16.2739 8.28ZM13.3339 8.18L13.117 7.20381L13.117 7.20381L13.3339 8.18ZM12.0339 8.58L11.4647 9.40219L11.9127 9.71237L12.4163 9.50402L12.0339 8.58ZM11.5939 8.04L10.6902 8.46809L10.6947 8.4777L10.6995 8.48721L11.5939 8.04ZM11.6539 6.44L10.8778 5.80939L10.873 5.8153L11.6539 6.44ZM12.4339 5.9L12.0793 4.965L12.0616 4.97169L12.0443 4.97903L12.4339 5.9ZM13.7939 5.58L13.6699 4.58772L13.6667 4.58812L13.7939 5.58ZM15.4539 14.34C15.7385 14.34 16.0354 14.315 16.3422 14.2689L16.0456 12.2911C15.8191 12.325 15.6227 12.34 15.4539 12.34V14.34ZM16.381 14.2623C16.6969 14.2022 17.0424 14.1091 17.3284 13.9375L16.2994 12.2225C16.3181 12.2113 16.3089 12.2199 16.2519 12.2383C16.1978 12.2557 16.118 12.2765 16.0068 12.2977L16.381 14.2623ZM17.8139 13.08V11.48H15.8139V13.08H17.8139ZM16.7309 10.4835L15.2909 10.6035L15.457 12.5965L16.897 12.4765L16.7309 10.4835ZM15.3027 10.6025C14.8337 10.636 14.3732 10.7409 13.9683 10.9658L14.9395 12.7142C15.0146 12.6725 15.1674 12.6173 15.4452 12.5975L15.3027 10.6025ZM13.9683 10.9658C13.7223 11.1025 13.4915 11.3003 13.3264 11.5755C13.1604 11.8522 13.0939 12.1519 13.0939 12.44H15.0939C15.0939 12.4614 15.0874 12.5278 15.0414 12.6045C14.9963 12.6797 14.9456 12.7108 14.9395 12.7142L13.9683 10.9658ZM13.0939 12.44C13.0939 12.9941 13.3179 13.4908 13.739 13.8557L15.0488 12.3443C15.0471 12.3428 15.0642 12.3581 15.0793 12.3912C15.0942 12.4241 15.0939 12.4455 15.0939 12.44H13.0939ZM13.7939 13.9C14.275 14.2608 14.9039 14.34 15.4539 14.34V12.34C15.2568 12.34 15.1232 12.3236 15.0397 12.3047C14.954 12.2853 14.9552 12.271 14.9939 12.3L13.7939 13.9ZM15.2939 6.48C15.9472 6.48 16.5174 6.54664 17.0114 6.67014L17.4964 4.72986C16.8171 4.56002 16.0807 4.48 15.2939 4.48V6.48ZM17.0165 6.6714C17.5123 6.79261 17.8909 6.97007 18.1781 7.1831L19.3698 5.5769C18.8302 5.1766 18.1955 4.90072 17.4914 4.7286L17.0165 6.6714ZM18.2074 7.20404C18.4911 7.39911 18.7032 7.6456 18.8544 7.9569L20.6534 7.0831C20.3513 6.46107 19.91 5.94755 19.3404 5.55596L18.2074 7.20404ZM18.8595 7.96721C19.0022 8.25274 19.0939 8.63259 19.0939 9.14H21.0939C21.0939 8.39407 20.9589 7.69393 20.6483 7.07279L18.8595 7.96721ZM19.0939 9.14V13.62H21.0939V9.14H19.0939ZM19.0939 13.62C19.0939 13.7611 19.0593 13.8011 19.0441 13.8184L20.5437 15.1416C20.9285 14.7056 21.0939 14.1722 21.0939 13.62H19.0939ZM19.0413 13.8215C18.9295 13.9493 18.7855 14.0709 18.5994 14.1825L19.6284 15.8975C19.9757 15.6891 20.285 15.4374 20.5465 15.1385L19.0413 13.8215ZM18.5994 14.1825C17.9518 14.5711 16.9383 14.82 15.4539 14.82V16.82C17.1161 16.82 18.5427 16.5489 19.6284 15.8975L18.5994 14.1825ZM15.4539 14.82C14.8088 14.82 14.2464 14.759 13.7604 14.646L13.3074 16.594C13.968 16.7476 14.6857 16.82 15.4539 16.82V14.82ZM13.7655 14.6472C13.2974 14.5357 12.9194 14.3755 12.616 14.1797L11.5318 15.8603C12.055 16.1979 12.6504 16.4376 13.3023 16.5928L13.7655 14.6472ZM12.6286 14.1879C12.36 14.0088 12.1583 13.7883 12.0107 13.5192L10.2571 14.4808C10.5628 15.0384 10.9879 15.4978 11.5192 15.8521L12.6286 14.1879ZM12.0225 13.5414C11.8942 13.2927 11.8139 12.975 11.8139 12.56H9.81391C9.81391 13.2383 9.94695 13.8806 10.2453 14.4586L12.0225 13.5414ZM11.8139 12.56C11.8139 11.8472 12.0177 11.4407 12.3039 11.1824L10.9639 9.69761C10.1568 10.426 9.81391 11.4328 9.81391 12.56H11.8139ZM12.3039 11.1824C12.627 10.8908 13.231 10.6241 14.278 10.5146L14.0698 8.52543C12.8235 8.65586 11.7342 9.00253 10.9639 9.69761L12.3039 11.1824ZM14.2802 10.5143L16.9002 10.2343L16.6876 8.24566L14.0676 8.52566L14.2802 10.5143ZM17.7939 9.24V9.1H15.7939V9.24H17.7939ZM17.7939 9.1C17.7939 8.75435 17.7149 8.39513 17.5084 8.06946C17.3014 7.74297 17.0091 7.51794 16.693 7.37204L15.8548 9.18796C15.872 9.19587 15.8715 9.198 15.8612 9.18947C15.8501 9.18021 15.8342 9.16385 15.8194 9.14054C15.8047 9.1173 15.7973 9.09694 15.7942 9.08526C15.7914 9.07468 15.7939 9.07788 15.7939 9.1H17.7939ZM16.7353 7.39278C16.1922 7.11038 15.5161 7.02 14.8139 7.02V9.02C15.3918 9.02 15.689 9.10296 15.8126 9.16722L16.7353 7.39278ZM14.8139 7.02C14.2365 7.02 13.6703 7.08084 13.117 7.20381L13.5508 9.15619C13.9575 9.06582 14.378 9.02 14.8139 9.02V7.02ZM13.117 7.20381C12.5899 7.32093 12.1001 7.47039 11.6516 7.65598L12.4163 9.50402C12.7411 9.36961 13.1179 9.2524 13.5508 9.15619L13.117 7.20381ZM12.6031 7.75781C12.6007 7.75612 12.5532 7.72256 12.4883 7.59279L10.6995 8.48721C10.8746 8.83744 11.1205 9.16388 11.4647 9.40219L12.6031 7.75781ZM12.4976 7.61191C12.4377 7.48537 12.4139 7.37103 12.4139 7.26H10.4139C10.4139 7.6823 10.5101 8.08796 10.6902 8.46809L12.4976 7.61191ZM12.4139 7.26C12.4139 7.06048 12.4596 7.03368 12.4348 7.0647L10.873 5.8153C10.5282 6.24631 10.4139 6.76619 10.4139 7.26H12.4139ZM12.43 7.07059C12.4692 7.02236 12.5746 6.9263 12.8235 6.82097L12.0443 4.97903C11.5999 5.16703 11.1853 5.43097 10.8778 5.80941L12.43 7.07059ZM12.7886 6.835C13.0854 6.72239 13.4592 6.63109 13.9211 6.57188L13.6667 4.58812C13.0886 4.66224 12.5557 4.78427 12.0793 4.965L12.7886 6.835ZM13.9179 6.57228C14.4162 6.51 14.8744 6.48 15.2939 6.48V4.48C14.7801 4.48 14.2383 4.51666 13.6699 4.58772L13.9179 6.57228ZM28.8528 5.8L28.5535 6.75415L28.5645 6.75761L28.5757 6.76082L28.8528 5.8ZM31.7928 8.36L30.8736 8.75393L30.8767 8.76082L31.7928 8.36ZM31.8528 12.9L30.9165 12.5489L30.9165 12.5489L31.8528 12.9ZM30.8328 14.52L31.529 15.2379L31.5345 15.2325L31.5399 15.2271L30.8328 14.52ZM29.2328 15.48L28.9105 14.5333L28.9043 14.5355L29.2328 15.48ZM25.5728 15.54L25.9043 14.5965L24.5728 14.1287V15.54H25.5728ZM25.5728 18.86L25.8602 19.8178L26.5728 19.604V18.86H25.5728ZM24.9328 18.98L24.7977 17.9892L24.7757 17.9922L24.7539 17.9961L24.9328 18.98ZM23.2328 19L23.059 19.9848L23.0684 19.9864L23.2328 19ZM22.6528 18.76L23.2528 17.96L23.2528 17.96L22.6528 18.76ZM22.2928 18.26L23.2291 17.9089L23.2253 17.8987L23.2213 17.8886L22.2928 18.26ZM22.3928 6.98L21.5758 6.40332L21.5642 6.4198L21.5532 6.43675L22.3928 6.98ZM23.0328 6.36L22.4907 5.5197L22.4748 5.52994L22.4594 5.54077L23.0328 6.36ZM24.5728 5.72L24.8252 6.68762L24.8252 6.68762L24.5728 5.72ZM28.2128 8.76L27.4344 9.38775L27.4404 9.39524L27.4466 9.40261L28.2128 8.76ZM26.0728 8.24L26.3305 9.20624L26.36 9.19835L26.389 9.18868L26.0728 8.24ZM25.5528 8.44L25.074 7.5621L24.5528 7.84637V8.44H25.5528ZM25.5528 12.84H24.5528V13.458L25.1056 13.7344L25.5528 12.84ZM26.0728 13.04L26.3475 12.0785L26.0728 13.04ZM26.6328 6.48C27.3436 6.48 27.9814 6.57467 28.5535 6.75415L29.1522 4.84585C28.3642 4.59866 27.5221 4.48 26.6328 4.48V6.48ZM28.5757 6.76082C29.1449 6.92503 29.6059 7.17396 29.9787 7.49636L31.287 5.98364C30.6731 5.45271 29.9474 5.07496 29.13 4.83918L28.5757 6.76082ZM29.9787 7.49636C30.3473 7.81519 30.6479 8.22721 30.8737 8.75392L32.712 7.96608C32.3777 7.18612 31.905 6.51814 31.287 5.98364L29.9787 7.49636ZM30.8767 8.76082C31.0882 9.24445 31.2128 9.86764 31.2128 10.66H33.2128C33.2128 9.66569 33.0574 8.75555 32.709 7.95918L30.8767 8.76082ZM31.2128 10.66C31.2128 11.4221 31.1054 12.0452 30.9165 12.5489L32.7891 13.2511C33.0803 12.4748 33.2128 11.6046 33.2128 10.66H31.2128ZM30.9165 12.5489C30.7216 13.0685 30.4552 13.4834 30.1257 13.8129L31.5399 15.2271C32.0904 14.6766 32.504 14.0115 32.7891 13.2511L30.9165 12.5489ZM30.1367 13.8021C29.8112 14.1177 29.4086 14.3638 28.9105 14.5334L29.5551 16.4266C30.3104 16.1695 30.9745 15.7756 31.529 15.2379L30.1367 13.8021ZM28.9043 14.5355C28.4129 14.7064 27.8396 14.8 27.1728 14.8V16.8C28.026 16.8 28.8261 16.6802 29.5613 16.4245L28.9043 14.5355ZM27.1728 14.8C26.7015 14.8 26.2813 14.729 25.9043 14.5965L25.2413 16.4835C25.851 16.6977 26.4974 16.8 27.1728 16.8V14.8ZM24.5728 15.54V18.86H26.5728V15.54H24.5728ZM25.2855 17.9022C25.2315 17.9184 25.0835 17.9502 24.7977 17.9892L25.0679 19.9708C25.3688 19.9298 25.6475 19.8816 25.8602 19.8178L25.2855 17.9022ZM24.7539 17.9961C24.5213 18.0384 24.2812 18.06 24.0328 18.06V20.06C24.3978 20.06 24.7577 20.0282 25.1117 19.9639L24.7539 17.9961ZM24.0328 18.06C23.7838 18.06 23.5732 18.0429 23.3972 18.0136L23.0684 19.9864C23.3725 20.0371 23.6952 20.06 24.0328 20.06V18.06ZM23.4066 18.0152C23.3111 17.9984 23.2695 17.9725 23.2528 17.96L22.0528 19.56C22.3561 19.7875 22.7012 19.9216 23.059 19.9848L23.4066 18.0152ZM23.2528 17.96C23.256 17.9624 23.2568 17.9641 23.2543 17.9607C23.2514 17.9566 23.2414 17.9416 23.2291 17.9089L21.3565 18.6111C21.4939 18.9776 21.7197 19.3102 22.0528 19.56L23.2528 17.96ZM23.2213 17.8886C23.2072 17.8533 23.1728 17.7283 23.1728 17.46H21.1728C21.1728 17.8584 21.2185 18.2667 21.3643 18.6314L23.2213 17.8886ZM23.1728 17.46V7.86H21.1728V17.46H23.1728ZM23.1728 7.86C23.1728 7.62996 23.22 7.54238 23.2324 7.52325L21.5532 6.43675C21.2723 6.87095 21.1728 7.37004 21.1728 7.86H23.1728ZM23.2098 7.55668C23.2928 7.43907 23.4181 7.31093 23.6063 7.17923L22.4594 5.54077C22.1142 5.7824 21.8128 6.06759 21.5758 6.40332L23.2098 7.55668ZM23.5749 7.2003C23.8776 7.00504 24.2866 6.82814 24.8252 6.68762L24.3204 4.75238C23.6324 4.93186 23.0147 5.18163 22.4907 5.5197L23.5749 7.2003ZM24.8252 6.68762C25.3417 6.55288 25.9417 6.48 26.6328 6.48V4.48C25.8039 4.48 25.0306 4.56712 24.3204 4.75238L24.8252 6.68762ZM26.6728 14.12C27.5648 14.12 28.3998 13.8453 28.9845 13.147C29.5407 12.4828 29.7328 11.5952 29.7328 10.66H27.7328C27.7328 11.3648 27.5816 11.7072 27.4511 11.863C27.3492 11.9847 27.1541 12.12 26.6728 12.12V14.12ZM29.7328 10.66C29.7328 9.70063 29.5428 8.78964 28.979 8.11739L27.4466 9.40261C27.5761 9.55703 27.7328 9.9127 27.7328 10.66H29.7328ZM28.9912 8.13225C28.4287 7.43473 27.6264 7.14 26.7528 7.14V9.14C27.1592 9.14 27.3302 9.2586 27.4344 9.38775L28.9912 8.13225ZM26.7528 7.14C26.413 7.14 26.0767 7.1846 25.7566 7.29132L26.389 9.18868C26.4689 9.16206 26.586 9.14 26.7528 9.14V7.14ZM25.8152 7.27376C25.5557 7.34296 25.3049 7.43616 25.074 7.5621L26.0317 9.31789C26.0941 9.28384 26.19 9.2437 26.3305 9.20624L25.8152 7.27376ZM24.5528 8.44V12.84H26.5528V8.44H24.5528ZM25.1056 13.7344C25.3254 13.8443 25.557 13.9326 25.7981 14.0015L26.3475 12.0785C26.2153 12.0407 26.1003 11.9957 26 11.9456L25.1056 13.7344ZM25.7981 14.0015C26.0824 14.0828 26.3757 14.12 26.6728 14.12V12.12C26.5433 12.12 26.4365 12.1039 26.3475 12.0785L25.7981 14.0015ZM43.552 12.86L44.4819 13.2281L44.4844 13.2215L43.552 12.86ZM42.472 14.48L41.786 13.7524L41.7808 13.7574L41.7756 13.7624L42.472 14.48ZM40.832 15.48L40.4982 14.5374L40.4982 14.5374L40.832 15.48ZM36.552 15.46L36.2009 16.3963L36.2009 16.3963L36.552 15.46ZM34.892 14.44L34.1849 15.1471L34.1953 15.1575L34.206 15.1676L34.892 14.44ZM33.832 12.8L32.9022 13.168L32.9022 13.168L33.832 12.8ZM33.832 8.5L32.9022 8.13195L32.9022 8.13195L33.832 8.5ZM34.892 6.88L35.5885 7.59758L35.5888 7.59728L34.892 6.88ZM36.552 5.84L36.9032 6.77633L36.9032 6.77633L36.552 5.84ZM40.832 5.86L40.464 6.78981L40.4724 6.79314L40.4809 6.79633L40.832 5.86ZM42.472 6.9L41.7649 7.60711L41.7753 7.6175L41.786 7.62759L42.472 6.9ZM43.552 8.52L42.6222 8.88805L42.6222 8.88805L43.552 8.52ZM37.392 12.52L36.5716 13.0918L36.5816 13.1061L36.592 13.12L37.392 12.52ZM39.992 12.5L39.1716 11.9282L39.1657 11.9367L39.16 11.9453L39.992 12.5ZM39.992 8.8L39.1716 9.37179L39.1758 9.37774L39.18 9.38364L39.992 8.8ZM37.392 8.8L38.204 9.38364L38.2083 9.37774L38.2124 9.37179L37.392 8.8ZM42.932 10.64C42.932 11.3648 42.821 11.9791 42.6197 12.4985L44.4844 13.2215C44.7897 12.4342 44.932 11.5685 44.932 10.64H42.932ZM42.6222 12.492C42.4188 13.0058 42.1384 13.4202 41.786 13.7524L43.158 15.2076C43.739 14.6598 44.1786 13.9942 44.4818 13.228L42.6222 12.492ZM41.7756 13.7624C41.4331 14.0948 41.0128 14.3551 40.4982 14.5374L41.1659 16.4226C41.9312 16.1516 42.6043 15.7452 43.1685 15.1976L41.7756 13.7624ZM40.4982 14.5374C39.9809 14.7206 39.3827 14.82 38.692 14.82V16.82C39.5747 16.82 40.4032 16.6928 41.1659 16.4226L40.4982 14.5374ZM38.692 14.82C38.0074 14.82 37.4153 14.7157 36.9032 14.5237L36.2009 16.3963C36.9688 16.6843 37.8033 16.82 38.692 16.82V14.82ZM36.9032 14.5237C36.3793 14.3272 35.9418 14.0554 35.578 13.7124L34.206 15.1676C34.7756 15.7046 35.4448 16.1128 36.2009 16.3963L36.9032 14.5237ZM35.5991 13.7329C35.2494 13.3831 34.9686 12.9544 34.7618 12.432L32.9022 13.168C33.2021 13.9256 33.628 14.5902 34.1849 15.1471L35.5991 13.7329ZM34.7618 12.432C34.5618 11.9265 34.452 11.3341 34.452 10.64H32.452C32.452 11.5459 32.5956 12.3935 32.9022 13.168L34.7618 12.432ZM34.452 10.64C34.452 9.96151 34.561 9.37537 34.7618 8.86805L32.9022 8.13195C32.5964 8.90463 32.452 9.74516 32.452 10.64H34.452ZM34.7618 8.86805C34.9678 8.34784 35.2457 7.93035 35.5885 7.59758L34.1956 6.16242C33.6317 6.70965 33.203 7.37216 32.9022 8.13195L34.7618 8.86805ZM35.5888 7.59728C35.9516 7.24484 36.3856 6.97042 36.9032 6.77633L36.2009 4.90367C35.4385 5.18958 34.7658 5.60849 34.1952 6.16272L35.5888 7.59728ZM36.9032 6.77633C37.4153 6.58427 38.0074 6.48 38.692 6.48V4.48C37.8033 4.48 36.9688 4.61573 36.2009 4.90367L36.9032 6.77633ZM38.692 6.48C39.3705 6.48 39.9567 6.58899 40.464 6.78981L41.2001 4.93019C40.4274 4.62434 39.5869 4.48 38.692 4.48V6.48ZM40.4809 6.79633C40.9962 6.98958 41.4191 7.2613 41.7649 7.60711L43.1791 6.19289C42.6183 5.63204 41.9478 5.21042 41.1832 4.92367L40.4809 6.79633ZM41.786 7.62759C42.1384 7.95983 42.4188 8.37416 42.6222 8.88805L44.4818 8.15195C44.1786 7.38584 43.739 6.72017 43.158 6.17241L41.786 7.62759ZM42.6222 8.88805C42.8238 9.39729 42.932 9.97718 42.932 10.64H44.932C44.932 9.75615 44.7869 8.92271 44.4818 8.15195L42.6222 8.88805ZM35.932 10.64C35.932 11.5587 36.1019 12.4178 36.5716 13.0918L38.2124 11.9482C38.0688 11.7422 37.932 11.348 37.932 10.64H35.932ZM36.592 13.12C37.1117 13.8128 37.8557 14.16 38.712 14.16V12.16C38.4484 12.16 38.3124 12.0805 38.192 11.92L36.592 13.12ZM38.712 14.16C39.5829 14.16 40.3326 13.7919 40.8241 13.0547L39.16 11.9453C39.0648 12.0881 38.9612 12.16 38.712 12.16V14.16ZM40.8124 13.0718C41.2806 12.4001 41.452 11.5495 41.452 10.64H39.452C39.452 11.3305 39.3168 11.7199 39.1716 11.9282L40.8124 13.0718ZM41.452 10.64C41.452 9.73347 41.2817 8.88098 40.804 8.21636L39.18 9.38364C39.3157 9.57235 39.452 9.94653 39.452 10.64H41.452ZM40.8124 8.22821C40.3092 7.50615 39.5619 7.14 38.692 7.14V9.14C38.9421 9.14 39.0615 9.21385 39.1716 9.37179L40.8124 8.22821ZM38.692 7.14C37.8221 7.14 37.0749 7.50615 36.5716 8.22821L38.2124 9.37179C38.3225 9.21385 38.4419 9.14 38.692 9.14V7.14ZM36.58 8.21636C36.1023 8.88098 35.932 9.73347 35.932 10.64H37.932C37.932 9.94653 38.0684 9.57235 38.204 9.38364L36.58 8.21636ZM50.5298 13.28L50.6782 14.2689L50.6976 14.266L50.717 14.2623L50.5298 13.28ZM51.1498 13.08L51.6643 13.9375L52.1498 13.6462V13.08H51.1498ZM51.1498 11.48H52.1498V10.3932L51.0668 10.4835L51.1498 11.48ZM49.7098 11.6L49.7811 12.5975L49.7929 12.5965L49.7098 11.6ZM48.7898 11.84L48.3042 10.9658L48.3042 10.9658L48.7898 11.84ZM48.7298 13.1L48.0749 13.8557L48.1016 13.8788L48.1298 13.9L48.7298 13.1ZM51.5898 5.7L51.3473 6.67016L51.3524 6.6714L51.5898 5.7ZM53.1098 6.38L52.514 7.1831L52.5285 7.19383L52.5433 7.20404L53.1098 6.38ZM54.0898 7.52L53.1903 7.95693L53.1954 7.96721L54.0898 7.52ZM54.1298 14.48L53.38 13.8184L53.3773 13.8215L54.1298 14.48ZM53.4498 15.04L52.9353 14.1825L52.9353 14.1825L53.4498 15.04ZM47.8698 15.62L47.6382 16.5928L47.6433 16.594L47.8698 15.62ZM46.4098 15.02L45.8551 15.8521L45.8614 15.8562L45.8677 15.8603L46.4098 15.02ZM45.4698 14L44.5812 14.4586L44.587 14.4698L44.593 14.4808L45.4698 14ZM45.9698 10.44L45.2999 9.69761L45.2999 9.69761L45.9698 10.44ZM48.5098 9.52L48.6139 10.5146L48.6161 10.5143L48.5098 9.52ZM51.1298 9.24L51.2361 10.2343L52.1298 10.1388V9.24H51.1298ZM50.6098 8.28L50.1485 9.16722L50.1694 9.17809L50.1908 9.18796L50.6098 8.28ZM47.6698 8.18L47.4529 7.20381L47.4529 7.20381L47.6698 8.18ZM46.3698 8.58L45.8006 9.40219L46.2487 9.71237L46.7522 9.50402L46.3698 8.58ZM45.9298 8.04L45.0261 8.46809L45.0307 8.4777L45.0354 8.48721L45.9298 8.04ZM45.9898 6.44L45.2137 5.80939L45.209 5.8153L45.9898 6.44ZM46.7698 5.9L46.4152 4.965L46.3976 4.97169L46.3802 4.97903L46.7698 5.9ZM48.1298 5.58L48.0058 4.58772L48.0027 4.58812L48.1298 5.58ZM49.7898 14.34C50.0744 14.34 50.3713 14.315 50.6782 14.2689L50.3815 12.2911C50.155 12.325 49.9586 12.34 49.7898 12.34V14.34ZM50.717 14.2623C51.0328 14.2022 51.3783 14.1091 51.6643 13.9375L50.6353 12.2225C50.6541 12.2113 50.6449 12.2199 50.5878 12.2383C50.5337 12.2557 50.4539 12.2765 50.3427 12.2977L50.717 14.2623ZM52.1498 13.08V11.48H50.1498V13.08H52.1498ZM51.0668 10.4835L49.6268 10.6035L49.7929 12.5965L51.2329 12.4765L51.0668 10.4835ZM49.6386 10.6025C49.1697 10.636 48.7092 10.7409 48.3042 10.9658L49.2755 12.7142C49.3505 12.6725 49.5033 12.6173 49.7811 12.5975L49.6386 10.6025ZM48.3042 10.9658C48.0582 11.1025 47.8274 11.3003 47.6624 11.5755C47.4964 11.8522 47.4298 12.1519 47.4298 12.44H49.4298C49.4298 12.4614 49.4233 12.5278 49.3773 12.6045C49.3322 12.6797 49.2815 12.7108 49.2755 12.7142L48.3042 10.9658ZM47.4298 12.44C47.4298 12.9941 47.6538 13.4908 48.0749 13.8557L49.3848 12.3443C49.3831 12.3428 49.4002 12.3581 49.4152 12.3912C49.4301 12.4241 49.4298 12.4455 49.4298 12.44H47.4298ZM48.1298 13.9C48.611 14.2608 49.2399 14.34 49.7898 14.34V12.34C49.5927 12.34 49.4592 12.3236 49.3757 12.3047C49.2899 12.2853 49.2912 12.271 49.3298 12.3L48.1298 13.9ZM49.6298 6.48C50.2831 6.48 50.8533 6.54664 51.3473 6.67014L51.8324 4.72986C51.153 4.56002 50.4166 4.48 49.6298 4.48V6.48ZM51.3524 6.6714C51.8483 6.79261 52.2269 6.97007 52.514 7.1831L53.7057 5.5769C53.1662 5.1766 52.5314 4.90072 51.8273 4.7286L51.3524 6.6714ZM52.5433 7.20404C52.8271 7.39911 53.0391 7.6456 53.1903 7.9569L54.9894 7.0831C54.6872 6.46107 54.246 5.94755 53.6764 5.55596L52.5433 7.20404ZM53.1954 7.96721C53.3382 8.25274 53.4298 8.63259 53.4298 9.14H55.4298C55.4298 8.39407 55.2948 7.69393 54.9843 7.07279L53.1954 7.96721ZM53.4298 9.14V13.62H55.4298V9.14H53.4298ZM53.4298 13.62C53.4298 13.7611 53.3953 13.8011 53.38 13.8184L54.8797 15.1416C55.2644 14.7056 55.4298 14.1722 55.4298 13.62H53.4298ZM53.3773 13.8215C53.2654 13.9493 53.1214 14.0709 52.9353 14.1825L53.9643 15.8975C54.3116 15.6891 54.6209 15.4374 54.8824 15.1385L53.3773 13.8215ZM52.9353 14.1825C52.2877 14.5711 51.2743 14.82 49.7898 14.82V16.82C51.4521 16.82 52.8786 16.5489 53.9643 15.8975L52.9353 14.1825ZM49.7898 14.82C49.1448 14.82 48.5824 14.759 48.0964 14.646L47.6433 16.594C48.304 16.7476 49.0216 16.82 49.7898 16.82V14.82ZM48.1015 14.6472C47.6334 14.5357 47.2554 14.3755 46.952 14.1797L45.8677 15.8603C46.391 16.1979 46.9863 16.4376 47.6382 16.5928L48.1015 14.6472ZM46.9645 14.1879C46.6959 14.0088 46.4942 13.7883 46.3467 13.5192L44.593 14.4808C44.8988 15.0384 45.3238 15.4978 45.8551 15.8521L46.9645 14.1879ZM46.3585 13.5414C46.2301 13.2927 46.1498 12.975 46.1498 12.56H44.1498C44.1498 13.2383 44.2829 13.8806 44.5812 14.4586L46.3585 13.5414ZM46.1498 12.56C46.1498 11.8472 46.3536 11.4407 46.6398 11.1824L45.2999 9.69761C44.4927 10.426 44.1498 11.4328 44.1498 12.56H46.1498ZM46.6398 11.1824C46.9629 10.8908 47.5669 10.6241 48.6139 10.5146L48.4058 8.52543C47.1595 8.65586 46.0701 9.00253 45.2999 9.69761L46.6398 11.1824ZM48.6161 10.5143L51.2361 10.2343L51.0236 8.24566L48.4036 8.52566L48.6161 10.5143ZM52.1298 9.24V9.1H50.1298V9.24H52.1298ZM52.1298 9.1C52.1298 8.75435 52.0509 8.39513 51.8444 8.06946C51.6373 7.74297 51.345 7.51794 51.0289 7.37204L50.1908 9.18796C50.2079 9.19587 50.2074 9.198 50.1972 9.18947C50.1861 9.18021 50.1701 9.16385 50.1553 9.14054C50.1406 9.1173 50.1332 9.09694 50.1301 9.08526C50.1274 9.07468 50.1298 9.07788 50.1298 9.1H52.1298ZM51.0712 7.39278C50.5281 7.11038 49.852 7.02 49.1498 7.02V9.02C49.7277 9.02 50.0249 9.10296 50.1485 9.16722L51.0712 7.39278ZM49.1498 7.02C48.5724 7.02 48.0063 7.08084 47.4529 7.20381L47.8868 9.15619C48.2934 9.06582 48.7139 9.02 49.1498 9.02V7.02ZM47.4529 7.20381C46.9259 7.32093 46.436 7.47039 45.9875 7.65598L46.7522 9.50402C47.077 9.36961 47.4538 9.2524 47.8868 9.15619L47.4529 7.20381ZM46.9391 7.75781C46.9366 7.75612 46.8892 7.72256 46.8243 7.59279L45.0354 8.48721C45.2105 8.83744 45.4564 9.16388 45.8006 9.40219L46.9391 7.75781ZM46.8336 7.61191C46.7736 7.48537 46.7498 7.37103 46.7498 7.26H44.7498C44.7498 7.6823 44.846 8.08796 45.0261 8.46809L46.8336 7.61191ZM46.7498 7.26C46.7498 7.06048 46.7955 7.03368 46.7707 7.0647L45.209 5.8153C44.8642 6.24631 44.7498 6.76619 44.7498 7.26H46.7498ZM46.766 7.07059C46.8051 7.02236 46.9105 6.9263 47.1595 6.82097L46.3802 4.97903C45.9358 5.16703 45.5212 5.43097 45.2137 5.80941L46.766 7.07059ZM47.1245 6.835C47.4214 6.72239 47.7952 6.63109 48.257 6.57188L48.0027 4.58812C47.4245 4.66224 46.8917 4.78427 46.4152 4.965L47.1245 6.835ZM48.2539 6.57228C48.7521 6.51 49.2103 6.48 49.6298 6.48V4.48C49.1161 4.48 48.5743 4.51666 48.0058 4.58772L48.2539 6.57228ZM59.9088 15.48L60.1961 16.4378L60.9088 16.224V15.48H59.9088ZM59.2688 15.6L59.1336 14.6091L59.1273 14.6101L59.2688 15.6ZM57.5888 15.6L57.415 16.5848L57.4244 16.5864L57.5888 15.6ZM57.0088 15.36L57.6088 14.56L57.6088 14.56L57.0088 15.36ZM56.6288 14.88L55.6924 15.2311L55.7061 15.2676L55.7226 15.3029L56.6288 14.88ZM56.6688 7.28L55.785 6.81211L55.7795 6.82239L55.7743 6.83279L56.6688 7.28ZM57.1688 6.68L57.7993 7.45611L57.7993 7.45611L57.1688 6.68ZM57.9488 6.22L58.3475 7.13707L58.3565 7.13316L58.3654 7.12906L57.9488 6.22ZM58.9688 5.84L59.2528 6.7988L59.2528 6.7988L58.9688 5.84ZM60.0888 5.6L60.2254 6.59062L60.2421 6.58832L60.2587 6.58546L60.0888 5.6ZM62.7688 5.88L62.2072 6.70748L62.2175 6.71446L62.228 6.72118L62.7688 5.88ZM63.2488 7.64L64.2045 7.93409L64.2075 7.92443L64.2103 7.91472L63.2488 7.64ZM63.0488 8.12V9.12H63.6424L63.9266 8.59885L63.0488 8.12ZM62.1888 8.16L62.2793 9.15589L62.2793 9.15589L62.1888 8.16ZM61.3288 8.28L61.1416 7.29766L61.1416 7.29766L61.3288 8.28ZM60.5288 8.46L60.7457 9.43619L60.7646 9.43199L60.7832 9.42707L60.5288 8.46ZM59.9088 8.66L59.4897 7.75204L58.9088 8.02017V8.66H59.9088ZM59.6214 14.5222C59.5674 14.5384 59.4195 14.5702 59.1336 14.6092L59.4039 16.5908C59.7047 16.5498 59.9834 16.5016 60.1961 16.4378L59.6214 14.5222ZM59.1273 14.6101C58.8979 14.6428 58.652 14.66 58.3888 14.66V16.66C58.7388 16.66 59.0796 16.6372 59.4102 16.5899L59.1273 14.6101ZM58.3888 14.66C58.1397 14.66 57.9291 14.6429 57.7531 14.6136L57.4244 16.5864C57.7284 16.6371 58.0511 16.66 58.3888 16.66V14.66ZM57.7625 14.6152C57.6671 14.5984 57.6254 14.5725 57.6088 14.56L56.4087 16.16C56.7121 16.3875 57.0571 16.5216 57.415 16.5848L57.7625 14.6152ZM57.6088 14.56C57.5935 14.5485 57.5661 14.5239 57.5349 14.4571L55.7226 15.3029C55.8781 15.6361 56.104 15.9315 56.4088 16.16L57.6088 14.56ZM57.5651 14.5289C57.5419 14.467 57.5088 14.3239 57.5088 14.06H55.5088C55.5088 14.4627 55.5556 14.8663 55.6924 15.2311L57.5651 14.5289ZM57.5088 14.06V8.06H55.5088V14.06H57.5088ZM57.5088 8.06C57.5088 7.86564 57.5429 7.7678 57.5632 7.72721L55.7743 6.83279C55.5813 7.21886 55.5088 7.64102 55.5088 8.06H57.5088ZM57.5525 7.74789C57.6053 7.64825 57.6827 7.5509 57.7993 7.45611L56.5382 5.90389C56.2282 6.15576 55.9722 6.45841 55.785 6.81211L57.5525 7.74789ZM57.7993 7.45611C57.9289 7.35088 58.1068 7.2417 58.3475 7.13707L57.55 5.30293C57.1773 5.46497 56.8353 5.66245 56.5382 5.90389L57.7993 7.45611ZM58.3654 7.12906C58.6397 7.00334 58.9352 6.89292 59.2528 6.7988L58.6847 4.8812C58.2823 5.00041 57.8978 5.14332 57.5321 5.31093L58.3654 7.12906ZM59.2528 6.7988C59.5627 6.70699 59.8866 6.63734 60.2254 6.59062L59.9521 4.60938C59.5175 4.66932 59.0948 4.75968 58.6847 4.8812L59.2528 6.7988ZM60.2587 6.58546C60.59 6.52833 60.9199 6.5 61.2488 6.5V4.5C60.8043 4.5 60.3608 4.53834 59.9188 4.61454L60.2587 6.58546ZM61.2488 6.5C61.769 6.5 62.0556 6.60455 62.2072 6.70748L63.3303 5.05252C62.7353 4.64878 62.0085 4.5 61.2488 4.5V6.5ZM62.228 6.72118C62.2567 6.73964 62.2696 6.75501 62.2826 6.78288C62.2998 6.81989 62.3288 6.90813 62.3288 7.08H64.3288C64.3288 6.28107 64.045 5.51163 63.3095 5.03882L62.228 6.72118ZM62.3288 7.08C62.3288 7.17009 62.3161 7.26436 62.2872 7.36528L64.2103 7.91472C64.2881 7.6423 64.3288 7.36324 64.3288 7.08H62.3288ZM62.293 7.34591C62.2577 7.4606 62.2162 7.55806 62.1709 7.64115L63.9266 8.59885C64.0413 8.3886 64.1332 8.16606 64.2045 7.93409L62.293 7.34591ZM63.0488 7.12C62.737 7.12 62.4201 7.13484 62.0982 7.16411L62.2793 9.15589C62.5441 9.13182 62.8005 9.12 63.0488 9.12V7.12ZM62.0982 7.16411C61.7736 7.19362 61.4546 7.23804 61.1416 7.29766L61.5159 9.26234C61.7629 9.21529 62.0173 9.17971 62.2793 9.15589L62.0982 7.16411ZM61.1416 7.29766C60.841 7.35493 60.5517 7.41991 60.2743 7.49292L60.7832 9.42707C61.0125 9.36675 61.2565 9.31173 61.5159 9.26234L61.1416 7.29766ZM60.3118 7.48381C60.021 7.54844 59.7432 7.63505 59.4897 7.75204L60.3278 9.56796C60.421 9.52495 60.5565 9.47822 60.7457 9.43619L60.3118 7.48381ZM58.9088 8.66V15.48H60.9088V8.66H58.9088Z" fill="#AF350F" mask="url(#path-1-outside-1_145_510)"/>
</svg>
